<?xml version="1.0" standalone="no"?>
<!DOCTYPE svg PUBLIC "-//W3C//DTD SVG 20010904//EN"
 "http://www.w3.org/TR/2001/REC-SVG-20010904/DTD/svg10.dtd">
<svg version="1.0" xmlns="http://www.w3.org/2000/svg"
 width="512.000000pt" height="512.000000pt" viewBox="0 0 512.000000 512.000000"
 preserveAspectRatio="xMidYMid meet">

<g transform="translate(0.000000,512.000000) scale(0.100000,-0.100000)"
fill="#000000" stroke="none">
<path d="M2600 3951 c-81 -26 -142 -65 -203 -130 -90 -97 -127 -201 -127 -352
0 -98 -25 -155 -107 -240 -150 -157 -403 -168 -647 -28 -215 124 -432 171
-636 140 -108 -17 -258 -71 -352 -127 -103 -62 -253 -204 -318 -301 -55 -82
-60 -107 -29 -147 23 -29 65 -34 116 -15 67 25 226 59 318 68 251 23 471 -37
647 -177 40 -32 136 -130 214 -218 224 -252 341 -355 529 -463 102 -59 267
-130 375 -162 41 -12 76 -23 78 -25 2 -1 -42 -120 -97 -263 -56 -144 -101
-274 -101 -290 0 -16 10 -37 23 -49 23 -22 24 -22 500 -22 464 0 478 1 497 20
12 12 20 33 20 53 0 17 -42 140 -94 272 -51 132 -92 241 -91 243 1 1 35 12 76
23 176 48 374 174 494 315 112 132 172 241 245 449 50 142 78 199 135 281 56
77 192 206 248 233 85 41 183 18 221 -51 19 -35 19 -36 1 -84 -27 -72 -103
-142 -210 -195 -64 -32 -94 -52 -103 -72 -40 -83 70 -137 252 -124 235 17 417
163 472 380 50 192 -57 417 -258 547 -175 113 -405 111 -608 -7 -41 -24 -107
-80 -178 -151 -81 -81 -128 -120 -166 -138 -154 -70 -296 -45 -417 76 -82 82
-109 140 -109 238 0 44 -5 103 -10 133 -32 165 -161 310 -321 360 -78 24 -204
24 -279 0z m277 -169 c95 -49 160 -148 170 -258 l6 -64 -312 0 -311 0 0 43 c0
131 82 246 209 294 55 20 185 12 238 -15z m1635 -433 c104 -27 237 -160 272
-273 41 -129 -14 -263 -144 -350 -40 -27 -42 -19 -5 33 46 64 67 123 68 196 1
102 -62 189 -176 240 -51 24 -68 27 -140 24 -103 -5 -163 -32 -270 -124 -150
-128 -246 -267 -317 -460 -80 -218 -91 -243 -139 -321 -125 -203 -311 -343
-536 -406 -114 -31 -385 -32 -525 -1 -326 73 -604 215 -810 415 -36 35 -118
122 -181 193 -254 285 -382 376 -615 435 -141 36 -364 43 -509 15 l-30 -6 35
30 c144 126 340 201 526 201 128 0 235 -32 409 -121 196 -101 273 -123 425
-123 91 -1 130 4 185 21 144 45 267 145 337 273 l33 60 331 0 331 0 39 -67
c139 -240 416 -347 656 -252 85 33 116 56 244 181 99 96 135 124 195 153 112
52 202 62 311 34z m-1700 -1626 l138 -6 19 -51 c11 -28 44 -115 75 -194 31
-79 56 -148 56 -153 0 -5 -131 -9 -320 -9 -176 0 -320 3 -320 7 0 4 31 88 70
187 38 100 74 194 80 210 9 24 14 27 38 22 15 -3 89 -9 164 -13z"/>
</g>
</svg>
